<svg xmlns="http://www.w3.org/2000/svg" xmlns:xlink="http://www.w3.org/1999/xlink" width="500" zoomAndPan="magnify" viewBox="0 0 375 374.999991" height="500" preserveAspectRatio="xMidYMid meet" version="1.0"><defs><g/><clipPath id="f668e92eeb"><path d="M 156 91.972656 L 250.96875 91.972656 L 250.96875 188 L 156 188 Z M 156 91.972656 " clip-rule="nonzero"/></clipPath><clipPath id="fe26f2706a"><path d="M 124.21875 143 L 225 143 L 225 241.972656 L 124.21875 241.972656 Z M 124.21875 143 " clip-rule="nonzero"/></clipPath><clipPath id="8ef68eda55"><path d="M 124.21875 143 L 215 143 L 215 241.972656 L 124.21875 241.972656 Z M 124.21875 143 " clip-rule="nonzero"/></clipPath><clipPath id="a4ab9ba71f"><rect x="0" width="177" y="0" height="46"/></clipPath><clipPath id="a34d17e69a"><rect x="0" width="116" y="0" height="21"/></clipPath></defs><g clip-path="url(#f668e92eeb)"><path fill="#f7b731" d="M 250.882812 116.753906 L 250.882812 187.71875 L 224.785156 187.71875 C 224.785156 182.566406 223.929688 178.261719 222.257812 174.742188 C 220.582031 171.222656 218.339844 168.34375 215.597656 166.03125 C 212.820312 163.757812 209.792969 161.835938 206.519531 160.34375 C 203.421875 158.921875 200.324219 157.675781 197.191406 156.609375 C 197.011719 156.539062 196.796875 156.46875 196.621094 156.398438 C 193.308594 155.257812 190.246094 154.15625 187.46875 153.019531 C 184.691406 151.882812 182.484375 150.566406 180.8125 149.039062 C 179.136719 147.507812 178.28125 145.445312 178.28125 142.921875 C 178.28125 140.21875 179.421875 138.121094 181.664062 136.664062 C 183.910156 135.207031 186.96875 134.496094 190.816406 134.496094 C 194.660156 134.496094 198.078125 135.242188 201.140625 136.734375 C 204.203125 138.230469 207.195312 140.539062 210.222656 143.597656 L 224.570312 129.414062 C 220.832031 125.21875 216.0625 121.875 210.292969 119.457031 C 204.523438 117.039062 198.1875 115.796875 191.242188 115.796875 C 184.40625 115.796875 178.355469 116.933594 173.121094 119.242188 C 167.886719 121.519531 163.792969 124.898438 160.835938 129.269531 C 158.769531 132.363281 157.417969 135.847656 156.8125 139.757812 C 156.742188 140.292969 156.667969 140.859375 156.597656 141.429688 C 156.527344 142.035156 156.492188 142.636719 156.457031 143.277344 L 156.457031 91.972656 L 226.136719 91.972656 C 239.773438 91.972656 250.882812 103.066406 250.882812 116.753906 Z M 250.882812 116.753906 " fill-opacity="1" fill-rule="nonzero"/></g><g clip-path="url(#fe26f2706a)"><path fill="#45aaf2" d="M 224.785156 187.71875 L 224.785156 241.9375 L 149.121094 241.9375 C 135.414062 241.9375 124.304688 230.847656 124.304688 217.15625 L 124.304688 143.382812 L 156.386719 143.382812 C 156.347656 143.953125 156.347656 144.523438 156.347656 145.089844 C 156.347656 150.140625 157.203125 154.335938 158.878906 157.640625 C 160.550781 160.949219 162.792969 163.722656 165.535156 165.925781 C 168.3125 168.128906 171.304688 169.941406 174.617188 171.402344 C 177.890625 172.859375 181.203125 174.136719 184.515625 175.277344 C 187.824219 176.414062 190.886719 177.550781 193.664062 178.796875 C 196.441406 180.003906 198.648438 181.460938 200.324219 183.132812 C 201.996094 184.804688 202.851562 187.007812 202.851562 189.710938 C 202.851562 192.699219 201.570312 195.042969 198.96875 196.714844 C 196.40625 198.386719 192.773438 199.238281 188.074219 199.238281 C 182.910156 199.238281 178.390625 198.242188 174.507812 196.21875 C 170.628906 194.191406 167.066406 191.382812 163.898438 187.71875 L 149.585938 201.90625 C 154.460938 207.34375 159.804688 211.363281 165.679688 214.03125 C 171.515625 216.695312 178.53125 218.011719 186.6875 218.011719 C 198.578125 218.011719 207.90625 215.308594 214.636719 209.941406 C 221.402344 204.570312 224.785156 197.175781 224.785156 187.71875 Z M 224.785156 187.71875 " fill-opacity="1" fill-rule="nonzero"/></g><path fill="#45aaf2" d="M 156.742188 139.863281 C 156.667969 140.398438 156.597656 140.96875 156.527344 141.535156 C 156.457031 141.394531 156.421875 141.285156 156.386719 141.179688 C 156.277344 140.859375 156.277344 140.574219 156.386719 140.363281 C 156.457031 140.148438 156.5625 139.972656 156.742188 139.863281 Z M 156.742188 139.863281 " fill-opacity="1" fill-rule="nonzero"/><path fill="#e09717" d="M 210.148438 143.667969 L 197.152344 156.644531 C 196.976562 156.574219 196.761719 156.503906 196.585938 156.433594 C 193.273438 155.296875 190.210938 154.191406 187.433594 153.054688 C 184.65625 151.917969 182.449219 150.601562 180.773438 149.074219 C 179.101562 147.542969 178.246094 145.480469 178.246094 142.957031 C 178.246094 140.257812 179.386719 138.160156 181.628906 136.699219 C 183.871094 135.242188 186.933594 134.53125 190.78125 134.53125 C 194.625 134.53125 198.042969 135.277344 201.105469 136.773438 C 204.132812 138.300781 207.160156 140.574219 210.148438 143.667969 Z M 210.148438 143.667969 " fill-opacity="1" fill-rule="nonzero"/><g clip-path="url(#8ef68eda55)"><path fill="#3a84ef" d="M 214.671875 209.976562 L 182.625 241.972656 L 149.121094 241.972656 C 135.414062 241.9375 124.304688 230.847656 124.304688 217.15625 L 124.304688 175.382812 L 156.386719 143.347656 C 156.347656 143.917969 156.347656 144.488281 156.347656 145.054688 C 156.347656 150.105469 157.203125 154.300781 158.878906 157.605469 C 160.550781 160.914062 162.792969 163.6875 165.535156 165.890625 C 168.3125 168.09375 171.304688 169.90625 174.617188 171.363281 C 177.890625 172.824219 181.203125 174.101562 184.515625 175.242188 C 187.824219 176.378906 190.886719 177.515625 193.664062 178.761719 C 196.441406 179.96875 198.648438 181.425781 200.324219 183.097656 C 201.996094 184.769531 202.851562 186.972656 202.851562 189.675781 C 202.851562 192.660156 201.570312 195.007812 198.96875 196.679688 C 196.40625 198.351562 192.773438 199.203125 188.074219 199.203125 C 182.910156 199.203125 178.390625 198.207031 174.507812 196.179688 C 170.628906 194.15625 167.066406 191.347656 163.898438 187.683594 L 149.585938 201.90625 C 154.460938 207.34375 159.804688 211.363281 165.679688 214.03125 C 171.515625 216.695312 178.53125 218.011719 186.6875 218.011719 C 198.578125 218.011719 207.90625 215.34375 214.671875 209.976562 Z M 214.671875 209.976562 " fill-opacity="1" fill-rule="nonzero"/></g><g transform="matrix(1, 0, 0, 1, 99, 241)"><g clip-path="url(#a4ab9ba71f)"><g fill="#3a84ef" fill-opacity="1"><g transform="translate(0.701932, 34.054755)"><g><path d="M 10.03125 0.21875 C 8.40625 0.21875 6.945312 -0.0390625 5.65625 -0.5625 C 4.363281 -1.09375 3.328125 -1.878906 2.546875 -2.921875 C 1.773438 -3.960938 1.367188 -5.210938 1.328125 -6.671875 L 7.109375 -6.671875 C 7.191406 -5.835938 7.476562 -5.203125 7.96875 -4.765625 C 8.457031 -4.335938 9.09375 -4.125 9.875 -4.125 C 10.675781 -4.125 11.3125 -4.304688 11.78125 -4.671875 C 12.25 -5.046875 12.484375 -5.5625 12.484375 -6.21875 C 12.484375 -6.769531 12.296875 -7.222656 11.921875 -7.578125 C 11.546875 -7.941406 11.085938 -8.238281 10.546875 -8.46875 C 10.015625 -8.707031 9.25 -8.972656 8.25 -9.265625 C 6.8125 -9.710938 5.632812 -10.15625 4.71875 -10.59375 C 3.8125 -11.039062 3.03125 -11.695312 2.375 -12.5625 C 1.71875 -13.4375 1.390625 -14.570312 1.390625 -15.96875 C 1.390625 -18.039062 2.140625 -19.664062 3.640625 -20.84375 C 5.148438 -22.019531 7.113281 -22.609375 9.53125 -22.609375 C 11.976562 -22.609375 13.953125 -22.019531 15.453125 -20.84375 C 16.960938 -19.664062 17.769531 -18.03125 17.875 -15.9375 L 12 -15.9375 C 11.957031 -16.65625 11.691406 -17.21875 11.203125 -17.625 C 10.722656 -18.039062 10.097656 -18.25 9.328125 -18.25 C 8.671875 -18.25 8.140625 -18.070312 7.734375 -17.71875 C 7.335938 -17.375 7.140625 -16.875 7.140625 -16.21875 C 7.140625 -15.5 7.476562 -14.9375 8.15625 -14.53125 C 8.832031 -14.132812 9.890625 -13.703125 11.328125 -13.234375 C 12.773438 -12.753906 13.945312 -12.289062 14.84375 -11.84375 C 15.738281 -11.394531 16.515625 -10.75 17.171875 -9.90625 C 17.828125 -9.0625 18.15625 -7.972656 18.15625 -6.640625 C 18.15625 -5.367188 17.832031 -4.210938 17.1875 -3.171875 C 16.539062 -2.140625 15.601562 -1.316406 14.375 -0.703125 C 13.15625 -0.0859375 11.707031 0.21875 10.03125 0.21875 Z M 10.03125 0.21875 "/></g></g></g><g fill="#3a84ef" fill-opacity="1"><g transform="translate(17.020921, 34.054755)"><g><path d="M 17.84375 3.8125 L 14.984375 -0.03125 C 14.140625 0.132812 13.316406 0.21875 12.515625 0.21875 C 10.410156 0.21875 8.484375 -0.265625 6.734375 -1.234375 C 4.992188 -2.210938 3.609375 -3.570312 2.578125 -5.3125 C 1.554688 -7.0625 1.046875 -9.023438 1.046875 -11.203125 C 1.046875 -13.390625 1.554688 -15.347656 2.578125 -17.078125 C 3.609375 -18.816406 4.992188 -20.171875 6.734375 -21.140625 C 8.484375 -22.117188 10.410156 -22.609375 12.515625 -22.609375 C 14.609375 -22.609375 16.523438 -22.117188 18.265625 -21.140625 C 20.015625 -20.171875 21.390625 -18.816406 22.390625 -17.078125 C 23.398438 -15.347656 23.90625 -13.390625 23.90625 -11.203125 C 23.90625 -9.296875 23.519531 -7.554688 22.75 -5.984375 C 21.976562 -4.410156 20.90625 -3.101562 19.53125 -2.0625 L 24.421875 3.8125 Z M 6.609375 -11.203125 C 6.609375 -9.234375 7.140625 -7.660156 8.203125 -6.484375 C 9.273438 -5.316406 10.710938 -4.734375 12.515625 -4.734375 C 14.285156 -4.734375 15.707031 -5.320312 16.78125 -6.5 C 17.851562 -7.6875 18.390625 -9.253906 18.390625 -11.203125 C 18.390625 -13.171875 17.851562 -14.742188 16.78125 -15.921875 C 15.707031 -17.097656 14.285156 -17.6875 12.515625 -17.6875 C 10.710938 -17.6875 9.273438 -17.101562 8.203125 -15.9375 C 7.140625 -14.769531 6.609375 -13.191406 6.609375 -11.203125 Z M 6.609375 -11.203125 "/></g></g></g><g fill="#3a84ef" fill-opacity="1"><g transform="translate(38.832572, 34.054755)"><g><path d="M 7.296875 -22.28125 L 7.296875 -8.953125 C 7.296875 -7.617188 7.625 -6.59375 8.28125 -5.875 C 8.9375 -5.15625 9.898438 -4.796875 11.171875 -4.796875 C 12.441406 -4.796875 13.414062 -5.15625 14.09375 -5.875 C 14.769531 -6.59375 15.109375 -7.617188 15.109375 -8.953125 L 15.109375 -22.28125 L 20.546875 -22.28125 L 20.546875 -8.984375 C 20.546875 -6.992188 20.117188 -5.3125 19.265625 -3.9375 C 18.421875 -2.5625 17.285156 -1.523438 15.859375 -0.828125 C 14.429688 -0.128906 12.835938 0.21875 11.078125 0.21875 C 9.328125 0.21875 7.753906 -0.125 6.359375 -0.8125 C 4.972656 -1.5 3.878906 -2.535156 3.078125 -3.921875 C 2.273438 -5.304688 1.875 -6.992188 1.875 -8.984375 L 1.875 -22.28125 Z M 7.296875 -22.28125 "/></g></g></g><g fill="#3a84ef" fill-opacity="1"><g transform="translate(58.009015, 34.054755)"><g><path d="M 15.84375 -3.9375 L 7.53125 -3.9375 L 6.1875 0 L 0.515625 0 L 8.578125 -22.28125 L 14.859375 -22.28125 L 22.921875 0 L 17.171875 0 Z M 14.453125 -8.125 L 11.6875 -16.28125 L 8.953125 -8.125 Z M 14.453125 -8.125 "/></g></g></g><g fill="#3a84ef" fill-opacity="1"><g transform="translate(78.201437, 34.054755)"><g><path d="M 10.3125 -22.28125 C 12.664062 -22.28125 14.71875 -21.816406 16.46875 -20.890625 C 18.226562 -19.960938 19.585938 -18.65625 20.546875 -16.96875 C 21.515625 -15.289062 22 -13.347656 22 -11.140625 C 22 -8.960938 21.515625 -7.023438 20.546875 -5.328125 C 19.585938 -3.640625 18.222656 -2.328125 16.453125 -1.390625 C 14.691406 -0.460938 12.644531 0 10.3125 0 L 1.96875 0 L 1.96875 -22.28125 Z M 9.96875 -4.703125 C 12.019531 -4.703125 13.617188 -5.257812 14.765625 -6.375 C 15.910156 -7.5 16.484375 -9.085938 16.484375 -11.140625 C 16.484375 -13.191406 15.910156 -14.789062 14.765625 -15.9375 C 13.617188 -17.082031 12.019531 -17.65625 9.96875 -17.65625 L 7.390625 -17.65625 L 7.390625 -4.703125 Z M 9.96875 -4.703125 "/></g></g></g><g fill="#3a84ef" fill-opacity="1"><g transform="translate(98.076362, 34.054755)"><g/></g></g><g fill="#3a84ef" fill-opacity="1"><g transform="translate(101.600307, 34.054755)"><g><path d="M 10.03125 0.21875 C 8.40625 0.21875 6.945312 -0.0390625 5.65625 -0.5625 C 4.363281 -1.09375 3.328125 -1.878906 2.546875 -2.921875 C 1.773438 -3.960938 1.367188 -5.210938 1.328125 -6.671875 L 7.109375 -6.671875 C 7.191406 -5.835938 7.476562 -5.203125 7.96875 -4.765625 C 8.457031 -4.335938 9.09375 -4.125 9.875 -4.125 C 10.675781 -4.125 11.3125 -4.304688 11.78125 -4.671875 C 12.25 -5.046875 12.484375 -5.5625 12.484375 -6.21875 C 12.484375 -6.769531 12.296875 -7.222656 11.921875 -7.578125 C 11.546875 -7.941406 11.085938 -8.238281 10.546875 -8.46875 C 10.015625 -8.707031 9.25 -8.972656 8.25 -9.265625 C 6.8125 -9.710938 5.632812 -10.15625 4.71875 -10.59375 C 3.8125 -11.039062 3.03125 -11.695312 2.375 -12.5625 C 1.71875 -13.4375 1.390625 -14.570312 1.390625 -15.96875 C 1.390625 -18.039062 2.140625 -19.664062 3.640625 -20.84375 C 5.148438 -22.019531 7.113281 -22.609375 9.53125 -22.609375 C 11.976562 -22.609375 13.953125 -22.019531 15.453125 -20.84375 C 16.960938 -19.664062 17.769531 -18.03125 17.875 -15.9375 L 12 -15.9375 C 11.957031 -16.65625 11.691406 -17.21875 11.203125 -17.625 C 10.722656 -18.039062 10.097656 -18.25 9.328125 -18.25 C 8.671875 -18.25 8.140625 -18.070312 7.734375 -17.71875 C 7.335938 -17.375 7.140625 -16.875 7.140625 -16.21875 C 7.140625 -15.5 7.476562 -14.9375 8.15625 -14.53125 C 8.832031 -14.132812 9.890625 -13.703125 11.328125 -13.234375 C 12.773438 -12.753906 13.945312 -12.289062 14.84375 -11.84375 C 15.738281 -11.394531 16.515625 -10.75 17.171875 -9.90625 C 17.828125 -9.0625 18.15625 -7.972656 18.15625 -6.640625 C 18.15625 -5.367188 17.832031 -4.210938 17.1875 -3.171875 C 16.539062 -2.140625 15.601562 -1.316406 14.375 -0.703125 C 13.15625 -0.0859375 11.707031 0.21875 10.03125 0.21875 Z M 10.03125 0.21875 "/></g></g></g><g fill="#3a84ef" fill-opacity="1"><g transform="translate(117.919296, 34.054755)"><g><path d="M 15.84375 -3.9375 L 7.53125 -3.9375 L 6.1875 0 L 0.515625 0 L 8.578125 -22.28125 L 14.859375 -22.28125 L 22.921875 0 L 17.171875 0 Z M 14.453125 -8.125 L 11.6875 -16.28125 L 8.953125 -8.125 Z M 14.453125 -8.125 "/></g></g></g><g fill="#3a84ef" fill-opacity="1"><g transform="translate(138.111718, 34.054755)"><g><path d="M 16.765625 -15.234375 C 16.359375 -15.972656 15.78125 -16.539062 15.03125 -16.9375 C 14.28125 -17.332031 13.394531 -17.53125 12.375 -17.53125 C 10.625 -17.53125 9.21875 -16.953125 8.15625 -15.796875 C 7.101562 -14.640625 6.578125 -13.097656 6.578125 -11.171875 C 6.578125 -9.117188 7.128906 -7.515625 8.234375 -6.359375 C 9.347656 -5.210938 10.878906 -4.640625 12.828125 -4.640625 C 14.160156 -4.640625 15.285156 -4.976562 16.203125 -5.65625 C 17.128906 -6.332031 17.800781 -7.304688 18.21875 -8.578125 L 11.328125 -8.578125 L 11.328125 -12.578125 L 23.140625 -12.578125 L 23.140625 -7.53125 C 22.742188 -6.175781 22.0625 -4.914062 21.09375 -3.75 C 20.132812 -2.582031 18.910156 -1.640625 17.421875 -0.921875 C 15.941406 -0.203125 14.273438 0.15625 12.421875 0.15625 C 10.210938 0.15625 8.242188 -0.320312 6.515625 -1.28125 C 4.796875 -2.25 3.453125 -3.585938 2.484375 -5.296875 C 1.523438 -7.015625 1.046875 -8.972656 1.046875 -11.171875 C 1.046875 -13.378906 1.523438 -15.34375 2.484375 -17.0625 C 3.453125 -18.789062 4.789062 -20.132812 6.5 -21.09375 C 8.21875 -22.0625 10.175781 -22.546875 12.375 -22.546875 C 15.050781 -22.546875 17.300781 -21.898438 19.125 -20.609375 C 20.957031 -19.316406 22.171875 -17.523438 22.765625 -15.234375 Z M 16.765625 -15.234375 "/></g></g></g><g fill="#3a84ef" fill-opacity="1"><g transform="translate(159.097882, 34.054755)"><g><path d="M 7.390625 -17.9375 L 7.390625 -13.4375 L 14.671875 -13.4375 L 14.671875 -9.234375 L 7.390625 -9.234375 L 7.390625 -4.34375 L 15.625 -4.34375 L 15.625 0 L 1.96875 0 L 1.96875 -22.28125 L 15.625 -22.28125 L 15.625 -17.9375 Z M 7.390625 -17.9375 "/></g></g></g></g></g><g transform="matrix(1, 0, 0, 1, 131, 276)"><g clip-path="url(#a34d17e69a)"><g fill="#000000" fill-opacity="1"><g transform="translate(0.509255, 15.346026)"><g><path d="M 8.3125 -9.4375 L 8.3125 0 L 7.078125 0 L 7.078125 -4.28125 L 2.28125 -4.28125 L 2.28125 0 L 1.046875 0 L 1.046875 -9.4375 L 2.28125 -9.4375 L 2.28125 -5.296875 L 7.078125 -5.296875 L 7.078125 -9.4375 Z M 8.3125 -9.4375 "/></g></g></g><g fill="#000000" fill-opacity="1"><g transform="translate(12.006497, 15.346026)"><g><path d="M 5.328125 0.09375 C 4.453125 0.09375 3.648438 -0.109375 2.921875 -0.515625 C 2.203125 -0.929688 1.628906 -1.503906 1.203125 -2.234375 C 0.785156 -2.972656 0.578125 -3.804688 0.578125 -4.734375 C 0.578125 -5.648438 0.785156 -6.472656 1.203125 -7.203125 C 1.628906 -7.941406 2.203125 -8.515625 2.921875 -8.921875 C 3.648438 -9.335938 4.453125 -9.546875 5.328125 -9.546875 C 6.210938 -9.546875 7.015625 -9.335938 7.734375 -8.921875 C 8.453125 -8.515625 9.019531 -7.945312 9.4375 -7.21875 C 9.851562 -6.488281 10.0625 -5.660156 10.0625 -4.734375 C 10.0625 -3.796875 9.851562 -2.960938 9.4375 -2.234375 C 9.019531 -1.503906 8.453125 -0.929688 7.734375 -0.515625 C 7.015625 -0.109375 6.210938 0.09375 5.328125 0.09375 Z M 5.328125 -0.96875 C 5.984375 -0.96875 6.570312 -1.117188 7.09375 -1.421875 C 7.625 -1.734375 8.039062 -2.175781 8.34375 -2.75 C 8.65625 -3.320312 8.8125 -3.984375 8.8125 -4.734375 C 8.8125 -5.484375 8.65625 -6.140625 8.34375 -6.703125 C 8.039062 -7.273438 7.628906 -7.710938 7.109375 -8.015625 C 6.585938 -8.328125 5.992188 -8.484375 5.328125 -8.484375 C 4.660156 -8.484375 4.0625 -8.328125 3.53125 -8.015625 C 3.007812 -7.710938 2.597656 -7.273438 2.296875 -6.703125 C 1.992188 -6.140625 1.84375 -5.484375 1.84375 -4.734375 C 1.84375 -3.984375 1.992188 -3.320312 2.296875 -2.75 C 2.597656 -2.175781 3.007812 -1.734375 3.53125 -1.421875 C 4.0625 -1.117188 4.660156 -0.96875 5.328125 -0.96875 Z M 5.328125 -0.96875 "/></g></g></g><g fill="#000000" fill-opacity="1"><g transform="translate(24.776532, 15.346026)"><g><path d="M 6.15625 0 L 2.28125 -4.3125 L 2.28125 0 L 1.046875 0 L 1.046875 -9.4375 L 2.28125 -9.4375 L 2.28125 -5.0625 L 6.171875 -9.4375 L 7.734375 -9.4375 L 3.453125 -4.71875 L 7.78125 0 Z M 6.15625 0 "/></g></g></g><g fill="#000000" fill-opacity="1"><g transform="translate(35.014519, 15.346026)"><g/></g></g><g fill="#000000" fill-opacity="1"><g transform="translate(40.757099, 15.346026)"><g><path d="M 3.984375 -9.4375 C 5.015625 -9.4375 5.90625 -9.242188 6.65625 -8.859375 C 7.414062 -8.484375 7.992188 -7.9375 8.390625 -7.21875 C 8.796875 -6.507812 9 -5.671875 9 -4.703125 C 9 -3.734375 8.796875 -2.894531 8.390625 -2.1875 C 7.992188 -1.476562 7.414062 -0.9375 6.65625 -0.5625 C 5.90625 -0.1875 5.015625 0 3.984375 0 L 1.046875 0 L 1.046875 -9.4375 Z M 3.984375 -1.015625 C 5.203125 -1.015625 6.128906 -1.335938 6.765625 -1.984375 C 7.410156 -2.628906 7.734375 -3.535156 7.734375 -4.703125 C 7.734375 -5.878906 7.410156 -6.796875 6.765625 -7.453125 C 6.117188 -8.109375 5.191406 -8.4375 3.984375 -8.4375 L 2.28125 -8.4375 L 2.28125 -1.015625 Z M 3.984375 -1.015625 "/></g></g></g><g fill="#000000" fill-opacity="1"><g transform="translate(52.457445, 15.346026)"><g><path d="M 2.28125 -9.4375 L 2.28125 0 L 1.046875 0 L 1.046875 -9.4375 Z M 2.28125 -9.4375 "/></g></g></g><g fill="#000000" fill-opacity="1"><g transform="translate(57.915679, 15.346026)"><g><path d="M 8.84375 -9.4375 L 5.28125 0 L 3.859375 0 L 0.296875 -9.4375 L 1.609375 -9.4375 L 4.578125 -1.296875 L 7.546875 -9.4375 Z M 8.84375 -9.4375 "/></g></g></g><g fill="#000000" fill-opacity="1"><g transform="translate(69.196271, 15.346026)"><g><path d="M 2.28125 -9.4375 L 2.28125 0 L 1.046875 0 L 1.046875 -9.4375 Z M 2.28125 -9.4375 "/></g></g></g><g fill="#000000" fill-opacity="1"><g transform="translate(74.654505, 15.346026)"><g><path d="M 4.03125 0.09375 C 3.414062 0.09375 2.859375 -0.015625 2.359375 -0.234375 C 1.867188 -0.453125 1.484375 -0.757812 1.203125 -1.15625 C 0.921875 -1.550781 0.773438 -2.003906 0.765625 -2.515625 L 2.09375 -2.515625 C 2.132812 -2.078125 2.3125 -1.707031 2.625 -1.40625 C 2.945312 -1.101562 3.414062 -0.953125 4.03125 -0.953125 C 4.625 -0.953125 5.085938 -1.097656 5.421875 -1.390625 C 5.765625 -1.679688 5.9375 -2.054688 5.9375 -2.515625 C 5.9375 -2.878906 5.835938 -3.171875 5.640625 -3.390625 C 5.441406 -3.617188 5.191406 -3.789062 4.890625 -3.90625 C 4.585938 -4.03125 4.1875 -4.160156 3.6875 -4.296875 C 3.0625 -4.453125 2.5625 -4.613281 2.1875 -4.78125 C 1.8125 -4.945312 1.488281 -5.203125 1.21875 -5.546875 C 0.957031 -5.890625 0.828125 -6.359375 0.828125 -6.953125 C 0.828125 -7.460938 0.957031 -7.914062 1.21875 -8.3125 C 1.476562 -8.707031 1.84375 -9.015625 2.3125 -9.234375 C 2.789062 -9.453125 3.335938 -9.5625 3.953125 -9.5625 C 4.835938 -9.5625 5.5625 -9.335938 6.125 -8.890625 C 6.695312 -8.453125 7.015625 -7.867188 7.078125 -7.140625 L 5.734375 -7.140625 C 5.679688 -7.503906 5.488281 -7.820312 5.15625 -8.09375 C 4.820312 -8.363281 4.378906 -8.5 3.828125 -8.5 C 3.316406 -8.5 2.898438 -8.363281 2.578125 -8.09375 C 2.253906 -7.832031 2.09375 -7.460938 2.09375 -6.984375 C 2.09375 -6.640625 2.1875 -6.359375 2.375 -6.140625 C 2.570312 -5.929688 2.8125 -5.769531 3.09375 -5.65625 C 3.375 -5.539062 3.773438 -5.410156 4.296875 -5.265625 C 4.921875 -5.097656 5.421875 -4.929688 5.796875 -4.765625 C 6.171875 -4.597656 6.492188 -4.335938 6.765625 -3.984375 C 7.046875 -3.640625 7.1875 -3.171875 7.1875 -2.578125 C 7.1875 -2.117188 7.0625 -1.679688 6.8125 -1.265625 C 6.570312 -0.859375 6.210938 -0.53125 5.734375 -0.28125 C 5.253906 -0.03125 4.6875 0.09375 4.03125 0.09375 Z M 4.03125 0.09375 "/></g></g></g><g fill="#000000" fill-opacity="1"><g transform="translate(84.730008, 15.346026)"><g><path d="M 2.28125 -9.4375 L 2.28125 0 L 1.046875 0 L 1.046875 -9.4375 Z M 2.28125 -9.4375 "/></g></g></g><g fill="#000000" fill-opacity="1"><g transform="translate(90.188242, 15.346026)"><g><path d="M 5.328125 0.09375 C 4.453125 0.09375 3.648438 -0.109375 2.921875 -0.515625 C 2.203125 -0.929688 1.628906 -1.503906 1.203125 -2.234375 C 0.785156 -2.972656 0.578125 -3.804688 0.578125 -4.734375 C 0.578125 -5.648438 0.785156 -6.472656 1.203125 -7.203125 C 1.628906 -7.941406 2.203125 -8.515625 2.921875 -8.921875 C 3.648438 -9.335938 4.453125 -9.546875 5.328125 -9.546875 C 6.210938 -9.546875 7.015625 -9.335938 7.734375 -8.921875 C 8.453125 -8.515625 9.019531 -7.945312 9.4375 -7.21875 C 9.851562 -6.488281 10.0625 -5.660156 10.0625 -4.734375 C 10.0625 -3.796875 9.851562 -2.960938 9.4375 -2.234375 C 9.019531 -1.503906 8.453125 -0.929688 7.734375 -0.515625 C 7.015625 -0.109375 6.210938 0.09375 5.328125 0.09375 Z M 5.328125 -0.96875 C 5.984375 -0.96875 6.570312 -1.117188 7.09375 -1.421875 C 7.625 -1.734375 8.039062 -2.175781 8.34375 -2.75 C 8.65625 -3.320312 8.8125 -3.984375 8.8125 -4.734375 C 8.8125 -5.484375 8.65625 -6.140625 8.34375 -6.703125 C 8.039062 -7.273438 7.628906 -7.710938 7.109375 -8.015625 C 6.585938 -8.328125 5.992188 -8.484375 5.328125 -8.484375 C 4.660156 -8.484375 4.0625 -8.328125 3.53125 -8.015625 C 3.007812 -7.710938 2.597656 -7.273438 2.296875 -6.703125 C 1.992188 -6.140625 1.84375 -5.484375 1.84375 -4.734375 C 1.84375 -3.984375 1.992188 -3.320312 2.296875 -2.75 C 2.597656 -2.175781 3.007812 -1.734375 3.53125 -1.421875 C 4.0625 -1.117188 4.660156 -0.96875 5.328125 -0.96875 Z M 5.328125 -0.96875 "/></g></g></g><g fill="#000000" fill-opacity="1"><g transform="translate(102.958277, 15.346026)"><g><path d="M 8.46875 0 L 7.234375 0 L 2.28125 -7.515625 L 2.28125 0 L 1.046875 0 L 1.046875 -9.453125 L 2.28125 -9.453125 L 7.234375 -1.953125 L 7.234375 -9.453125 L 8.46875 -9.453125 Z M 8.46875 0 "/></g></g></g></g></g></svg>